<?xml version="1.0" encoding="UTF-8" standalone="no"?>
<svg
   xmlns:dc="http://purl.org/dc/elements/1.1/"
   xmlns:cc="http://creativecommons.org/ns#"
   xmlns:rdf="http://www.w3.org/1999/02/22-rdf-syntax-ns#"
   xmlns:svg="http://www.w3.org/2000/svg"
   xmlns="http://www.w3.org/2000/svg"
   xmlns:sodipodi="http://sodipodi.sourceforge.net/DTD/sodipodi-0.dtd"
   xmlns:inkscape="http://www.inkscape.org/namespaces/inkscape"
   version="1.1"
   x="0px"
   y="0px"
   viewBox="0 0 95.066 39.729739"
   enable-background="new 0 0 100 100"
   xml:space="preserve"
   id="svg2"
   inkscape:version="0.48.4 r9939"
   width="100%"
   height="100%"
   sodipodi:docname="hand.svg"><metadata
     id="metadata14"><rdf:RDF><cc:Work
         rdf:about=""><dc:format>image/svg+xml</dc:format><dc:type
           rdf:resource="http://purl.org/dc/dcmitype/StillImage" /></cc:Work></rdf:RDF></metadata><defs
     id="defs12" /><sodipodi:namedview
     pagecolor="#ffffff"
     bordercolor="#666666"
     borderopacity="1"
     objecttolerance="10"
     gridtolerance="10"
     guidetolerance="10"
     inkscape:pageopacity="0"
     inkscape:pageshadow="2"
     inkscape:window-width="1855"
     inkscape:window-height="1176"
     id="namedview10"
     showgrid="false"
     inkscape:zoom="1.888"
     inkscape:cx="45.776"
     inkscape:cy="11.362"
     inkscape:window-x="65"
     inkscape:window-y="24"
     inkscape:window-maximized="1"
     inkscape:current-layer="svg2"
     fit-margin-top="0"
     fit-margin-left="0"
     fit-margin-right="0"
     fit-margin-bottom="0" /><path
     d="m 92.037,6.8847391 3.029,-3.293 -0.377,-0.639 c -0.055,-0.093 -1.379,-2.28999997 -4.092,-2.83299997 -1.854,-0.37 -3.857,0.119 -5.963,1.44599997 -0.614,-0.544 -1.538,-1.14299997 -2.797,-1.38099997 -2.176,-0.413 -4.587,0.364 -7.174,2.30199997 -0.538,0.403 -1.407,1.06 -2.479,1.871 -0.586,-0.517 -1.548,-1.156 -2.928,-1.374 -2.224,-0.351 -4.69,0.489 -7.338,2.494 L 51.341,13.488739 c -3.338,-1.97 -7.703,-4.5529999 -11.726,-6.9589999 -16.143,-9.653 -34.691,-3.505 -39.615,-1.573 v 2.163 c 2.975,-1.223 22.401,-8.554 38.588,1.127 7.936,4.7459999 17.208,10.1869999 17.301,10.2399999 l 0.239,0.141 0.276,-0.003 c 0.053,-0.002 5.676,-0.051 14.568,0.415 2.939,0.153 4.039,1.873 4.088,3.3 0.059,1.706 -1.342,3.72 -4.554,4.109 -3.58,0.435 -6.651,0.911 -9.36,1.332 -4.591,0.713 -7.906,1.229 -9.695,0.873 -15.818,-3.147 -23.335,-4.207 -23.41,-4.217 -0.544,-0.08 -1.052,0.304 -1.128,0.853 -0.077,0.547 0.305,1.052 0.852,1.128 0.074,0.011 7.545,1.064 23.296,4.197 0.532,0.106 1.136,0.153 1.819,0.153 2.059,0 4.841,-0.432 8.572,-1.011 2.694,-0.419 5.747,-0.893 9.294,-1.322 4.464,-0.542 6.401,-3.575 6.313,-6.164 -0.052,-1.497 -0.782,-3.031 -2.251,-4.052 2.371,-1.882 7.575,-5.999 10.063,-7.861 2.07,-1.5509999 3.926,-2.1929999 5.528,-1.9039999 1.021,0.184 1.731,0.715 2.145,1.122 l -14.5,18.6349999 c -0.958,1.231 -3.039,2.614 -4.543,3.02 l -23.219,6.277 c -1.5,0.405 -3.983,0.243 -5.418,-0.354 l -26.714,-11.123 c -1.851,-0.771 -4.799,-0.89 -6.71,-0.271 l -11.438,3.718 v 2.104 l 12.056,-3.919 c 1.466,-0.476 3.903,-0.378 5.324,0.214 l 26.714,11.123 c 1.142,0.476 2.712,0.73 4.198,0.73 0.906,0 1.781,-0.095 2.51,-0.291 l 23.222,-6.276 c 1.918,-0.519 4.378,-2.153 5.6,-3.723 l 15.42,-19.8179999 -0.367,-0.592 c -0.045,-0.068 -0.911,-1.4 -2.642,-2.145 z M 56.325,16.422739 c -0.621,-0.365 -1.719,-1.01 -3.119,-1.835 l 9.921,-7.5139999 c 2.179,-1.65 4.121,-2.358 5.775,-2.12 0.721,0.106 1.262,0.381 1.644,0.648 -4.933,3.743 -12.215,9.2919999 -14.221,10.8209999 z m 3.013,0.218 c 4.472,-3.407 14.031,-10.6859999 16.525,-12.5539999 2.104,-1.576 3.977,-2.232 5.569,-1.943 0.629,0.113 1.127,0.361 1.509,0.625 -4.004,3.014 -16.449,12.4609999 -18.466,13.9919999 -2.088,-0.067 -3.815,-0.102 -5.137,-0.12 z M 89.766,6.3997391 c -1.893,-0.036 -3.938,0.746 -6.092,2.358 -2.857,2.1399999 -9.259,7.2199999 -10.93,8.5479999 -0.513,-0.132 -1.057,-0.232 -1.666,-0.265 -1.216,-0.063 -2.362,-0.116 -3.452,-0.162 4.538,-3.444 14.646,-11.1129999 17.174,-13.0059999 1.999,-1.497 3.813,-2.1 5.379,-1.798 1.105,0.214 1.89,0.855 2.339,1.332 l -2.752,2.993 z"
     id="path4"
     inkscape:connector-curvature="0" /></svg>