<?xml version="1.0" encoding="UTF-8" standalone="no"?>
<svg
   xmlns:dc="http://purl.org/dc/elements/1.1/"
   xmlns:cc="http://creativecommons.org/ns#"
   xmlns:rdf="http://www.w3.org/1999/02/22-rdf-syntax-ns#"
   xmlns:svg="http://www.w3.org/2000/svg"
   xmlns="http://www.w3.org/2000/svg"
   xmlns:sodipodi="http://sodipodi.sourceforge.net/DTD/sodipodi-0.dtd"
   xmlns:inkscape="http://www.inkscape.org/namespaces/inkscape"
   version="1.1"
   x="0px"
   y="0px"
   viewBox="0 0 100 125"
   enable-background="new 0 0 100 100"
   xml:space="preserve"
   id="svg2"
   inkscape:version="0.48.4 r9939"
   width="100%"
   height="100%"
   sodipodi:docname="hand.svg"><metadata
     id="metadata14"><rdf:RDF><cc:Work
         rdf:about=""><dc:format>image/svg+xml</dc:format><dc:type
           rdf:resource="http://purl.org/dc/dcmitype/StillImage" /></cc:Work></rdf:RDF></metadata><defs
     id="defs12" /><sodipodi:namedview
     pagecolor="#ffffff"
     bordercolor="#666666"
     borderopacity="1"
     objecttolerance="10"
     gridtolerance="10"
     guidetolerance="10"
     inkscape:pageopacity="0"
     inkscape:pageshadow="2"
     inkscape:window-width="640"
     inkscape:window-height="480"
     id="namedview10"
     showgrid="false"
     inkscape:zoom="1.888"
     inkscape:cx="50"
     inkscape:cy="62.5"
     inkscape:window-x="75"
     inkscape:window-y="34"
     inkscape:window-maximized="0"
     inkscape:current-layer="svg2" /><path
     d="M96.261,41.017l3.029-3.293l-0.377-0.639c-0.055-0.093-1.379-2.29-4.092-2.833c-1.854-0.37-3.857,0.119-5.963,1.446  c-0.614-0.544-1.538-1.143-2.797-1.381c-2.176-0.413-4.587,0.364-7.174,2.302c-0.538,0.403-1.407,1.06-2.479,1.871  c-0.586-0.517-1.548-1.156-2.928-1.374c-2.224-0.351-4.69,0.489-7.338,2.494l-10.577,8.011c-3.338-1.97-7.703-4.553-11.726-6.959  c-16.143-9.653-34.691-3.505-39.615-1.573v2.163c2.975-1.223,22.401-8.554,38.588,1.127c7.936,4.746,17.208,10.187,17.301,10.24  l0.239,0.141l0.276-0.003c0.053-0.002,5.676-0.051,14.568,0.415c2.939,0.153,4.039,1.873,4.088,3.3  c0.059,1.706-1.342,3.72-4.554,4.109c-3.58,0.435-6.651,0.911-9.36,1.332c-4.591,0.713-7.906,1.229-9.695,0.873  c-15.818-3.147-23.335-4.207-23.41-4.217c-0.544-0.08-1.052,0.304-1.128,0.853c-0.077,0.547,0.305,1.052,0.852,1.128  c0.074,0.011,7.545,1.064,23.296,4.197c0.532,0.106,1.136,0.153,1.819,0.153c2.059,0,4.841-0.432,8.572-1.011  c2.694-0.419,5.747-0.893,9.294-1.322c4.464-0.542,6.401-3.575,6.313-6.164c-0.052-1.497-0.782-3.031-2.251-4.052  c2.371-1.882,7.575-5.999,10.063-7.861c2.07-1.551,3.926-2.193,5.528-1.904c1.021,0.184,1.731,0.715,2.145,1.122l-14.5,18.635  c-0.958,1.231-3.039,2.614-4.543,3.02L54.506,71.64c-1.5,0.405-3.983,0.243-5.418-0.354L22.374,60.163  c-1.851-0.771-4.799-0.89-6.71-0.271L4.226,63.61v2.104l12.056-3.919c1.466-0.476,3.903-0.378,5.324,0.214l26.714,11.123  c1.142,0.476,2.712,0.73,4.198,0.73c0.906,0,1.781-0.095,2.51-0.291l23.222-6.276c1.918-0.519,4.378-2.153,5.6-3.723l15.42-19.818  l-0.367-0.592C98.858,43.094,97.992,41.762,96.261,41.017z M60.549,50.555c-0.621-0.365-1.719-1.01-3.119-1.835l9.921-7.514  c2.179-1.65,4.121-2.358,5.775-2.12c0.721,0.106,1.262,0.381,1.644,0.648C69.837,43.477,62.555,49.026,60.549,50.555z   M63.562,50.773c4.472-3.407,14.031-10.686,16.525-12.554c2.104-1.576,3.977-2.232,5.569-1.943c0.629,0.113,1.127,0.361,1.509,0.625  c-4.004,3.014-16.449,12.461-18.466,13.992C66.611,50.826,64.884,50.791,63.562,50.773z M93.99,40.532  c-1.893-0.036-3.938,0.746-6.092,2.358c-2.857,2.14-9.259,7.22-10.93,8.548c-0.513-0.132-1.057-0.232-1.666-0.265  c-1.216-0.063-2.362-0.116-3.452-0.162c4.538-3.444,14.646-11.113,17.174-13.006c1.999-1.497,3.813-2.1,5.379-1.798  c1.105,0.214,1.89,0.855,2.339,1.332L93.99,40.532z"
     id="path4" /></svg>