<?xml version="1.0" encoding="UTF-8" standalone="no"?>
<svg id="svg2" xmlns:rdf="http://www.w3.org/1999/02/22-rdf-syntax-ns#" xmlns="http://www.w3.org/2000/svg" enable-background="new 0 0 100 100" xml:space="preserve" height="100%" width="100%" version="1.1" y="0px" x="0px" xmlns:cc="http://creativecommons.org/ns#" xmlns:dc="http://purl.org/dc/elements/1.1/" viewBox="0 0 41 41"><metadata id="metadata24"><rdf:RDF><cc:Work rdf:about=""><dc:format>image/svg+xml</dc:format><dc:type rdf:resource="http://purl.org/dc/dcmitype/StillImage"/><dc:title/></cc:Work></rdf:RDF></metadata><g id="g4" transform="matrix(0.62279469,0,0,0.71179779,-12.812248,-15.678323)"><g id="g10" transform="translate(0.05246586,0.21635651)"><g id="g12"><path id="path14" fill="#000" d="m85.35,30.705c-0.021,0-0.044,0-0.066-0.002-2.811-0.186-5.676-0.65-8.067-1.307-0.532-0.146-0.846-0.696-0.699-1.229,0.146-0.533,0.695-0.846,1.229-0.7,1.863,0.512,4.036,0.9,6.24,1.121-0.084-0.235-0.172-0.474-0.256-0.703-0.17-0.462-0.326-0.889-0.417-1.207-0.133-0.456-0.244-0.935-0.355-1.417-0.172-0.746-0.335-1.45-0.585-2.087-0.201-0.514,0.053-1.094,0.567-1.295,0.511-0.201,1.094,0.052,1.296,0.567,0.302,0.773,0.489,1.583,0.67,2.366,0.104,0.446,0.205,0.889,0.328,1.312,0.082,0.284,0.223,0.661,0.373,1.071,0.285,0.773,0.607,1.65,0.729,2.338,0.053,0.302-0.036,0.612-0.241,0.84-0.193,0.211-0.463,0.332-0.746,0.332z"/></g></g><g id="g6"><path id="path8" fill="#000" d="m21.573,79.627c-0.02,0-0.039,0-0.059-0.002-0.552-0.032-0.973-0.504-0.94-1.056,0.055-0.953,1.449-23.417,9.918-30.342,2.033-1.662,4.317-2.325,6.802-1.97,3.615,0.516,6.896,2.723,9.751,6.558,2.976,3.996,5.046,9.189,6.345,13.556,0.715-12.421,3.399-34.314,12.882-41.165,5.353-3.868,11.985-2.616,19.713,3.726,0.427,0.35,0.488,0.98,0.139,1.407-0.352,0.427-0.979,0.49-1.408,0.139-6.358-5.219-11.772-6.694-16.093-4.389-12.245,6.535-13.707,41.281-13.569,47.765,0.062,0.539,0.077,0.919,0.05,1.106-0.067,0.449-0.436,0.82-0.887,0.87-0.456,0.052-0.883-0.215-1.046-0.638-0.008-0.02-0.016-0.2-0.021-0.522l-0.025-0.004c0.086-1.415-4.183-24.722-16.114-26.427-1.929-0.274-3.647,0.228-5.252,1.539-7.791,6.37-9.175,28.685-9.188,28.91-0.031,0.528-0.472,0.939-0.998,0.939z"/></g></g></svg>
