<?xml version="1.0" encoding="UTF-8" standalone="no"?>
<svg
   xmlns:dc="http://purl.org/dc/elements/1.1/"
   xmlns:cc="http://creativecommons.org/ns#"
   xmlns:rdf="http://www.w3.org/1999/02/22-rdf-syntax-ns#"
   xmlns:svg="http://www.w3.org/2000/svg"
   xmlns="http://www.w3.org/2000/svg"
   xmlns:sodipodi="http://sodipodi.sourceforge.net/DTD/sodipodi-0.dtd"
   xmlns:inkscape="http://www.inkscape.org/namespaces/inkscape"
   version="1.1"
   x="0px"
   y="0px"
   viewBox="0 0 31 99.37"
   enable-background="new 0 0 100 100"
   xml:space="preserve"
   id="svg2"
   inkscape:version="0.48.4 r9939"
   width="100%"
   height="100%"
   sodipodi:docname="key.svg"><metadata
     id="metadata18"><rdf:RDF><cc:Work
         rdf:about=""><dc:format>image/svg+xml</dc:format><dc:type
           rdf:resource="http://purl.org/dc/dcmitype/StillImage" /></cc:Work></rdf:RDF></metadata><defs
     id="defs16" /><sodipodi:namedview
     pagecolor="#ffffff"
     bordercolor="#666666"
     borderopacity="1"
     objecttolerance="10"
     gridtolerance="10"
     guidetolerance="10"
     inkscape:pageopacity="0"
     inkscape:pageshadow="2"
     inkscape:window-width="1855"
     inkscape:window-height="1176"
     id="namedview14"
     showgrid="false"
     inkscape:zoom="1.888"
     inkscape:cx="15.5"
     inkscape:cy="37.187"
     inkscape:window-x="65"
     inkscape:window-y="24"
     inkscape:window-maximized="1"
     inkscape:current-layer="svg2"
     fit-margin-top="0"
     fit-margin-left="0"
     fit-margin-right="0"
     fit-margin-bottom="0" /><g
     id="g4"
     transform="translate(-34.5,-0.317)"><path
       d="m 49.174,14.246 c -2.529,0 -4.586,-2.057 -4.586,-4.585 0,-2.529 2.057,-4.586 4.586,-4.586 2.529,0 4.586,2.058 4.586,4.586 0,2.528 -2.058,4.585 -4.586,4.585 z m 0,-7.172 c -1.426,0 -2.586,1.16 -2.586,2.586 0,1.426 1.16,2.585 2.586,2.585 1.426,0 2.586,-1.16 2.586,-2.585 0,-1.426 -1.161,-2.586 -2.586,-2.586 z"
       id="path6"
       inkscape:connector-curvature="0" /><path
       d="m 64.5,86.197 c 0.55,0 1,-0.44 1,-1 v -4.14 c 0,-0.56 -0.45,-1 -1,-1 H 53.05 v -3.71 h 1.08 c 0.55,0 1,-0.44 1,-1 v -5.18 c 0,-0.55 -0.45,-1 -1,-1 h -1.08 v -40.03 c 6.21,-1.71 10.79,-7.4 10.79,-14.15 0,-8.09 -6.58,-14.67 -14.67,-14.67 -8.08,0 -14.67,6.58 -14.67,14.67 0,6.77 4.61,12.48 10.85,14.16 v 40.02 h -1.07 c -0.56,0 -1,0.45 -1,1 v 5.18 c 0,0.56 0.44,1 1,1 h 1.07 v 22.34 c 0,0.55 0.45,1 1,1 h 5.7 c 0.55,0 1,-0.45 1,-1 v -2.63 H 64.5 c 0.55,0 1,-0.45 1,-1 v -4.15 c 0,-0.55 -0.45,-1 -1,-1 h -3.15 v -3.71 h 3.15 z m -28,-71.21 c 0,-6.99 5.69,-12.67 12.67,-12.67 6.99,0 12.67,5.68 12.67,12.67 0,6.99 -5.68,12.67 -12.67,12.67 -6.98,0 -12.67,-5.68 -12.67,-12.67 z m 14.55,14.54 v 39.64 h -3.7 v -39.63 c 0.6,0.08 1.2,0.12 1.82,0.12 0.64,0 1.27,-0.04 1.88,-0.13 z m 0,68.16 h -3.7 v -21.34 h 3.7 v 21.34 z m -5.77,-23.34 v -3.18 h 7.85 v 3.18 h -7.85 z m 15.07,17.56 h 3.15 v 2.15 H 53.05 v -12 H 63.5 v 2.14 h -3.15 c -0.55,0 -1,0.45 -1,1 v 5.71 c 0,0.55 0.45,1 1,1 z"
       id="path8"
       inkscape:connector-curvature="0" /></g></svg>