<?xml version="1.0" encoding="UTF-8" standalone="no"?>
<svg
   xmlns:dc="http://purl.org/dc/elements/1.1/"
   xmlns:cc="http://creativecommons.org/ns#"
   xmlns:rdf="http://www.w3.org/1999/02/22-rdf-syntax-ns#"
   xmlns:svg="http://www.w3.org/2000/svg"
   xmlns="http://www.w3.org/2000/svg"
   xmlns:sodipodi="http://sodipodi.sourceforge.net/DTD/sodipodi-0.dtd"
   xmlns:inkscape="http://www.inkscape.org/namespaces/inkscape"
   version="1.1"
   x="0px"
   y="0px"
   viewBox="0 0 100 125"
   enable-background="new 0 0 100 100"
   xml:space="preserve"
   id="svg2"
   inkscape:version="0.48.4 r9939"
   width="100%"
   height="100%"
   sodipodi:docname="noun_21156_cc.svg"><metadata
     id="metadata18"><rdf:RDF><cc:Work
         rdf:about=""><dc:format>image/svg+xml</dc:format><dc:type
           rdf:resource="http://purl.org/dc/dcmitype/StillImage" /></cc:Work></rdf:RDF></metadata><defs
     id="defs16" /><sodipodi:namedview
     pagecolor="#ffffff"
     bordercolor="#666666"
     borderopacity="1"
     objecttolerance="10"
     gridtolerance="10"
     guidetolerance="10"
     inkscape:pageopacity="0"
     inkscape:pageshadow="2"
     inkscape:window-width="1855"
     inkscape:window-height="1176"
     id="namedview14"
     showgrid="false"
     inkscape:zoom="1.888"
     inkscape:cx="50"
     inkscape:cy="62.5"
     inkscape:window-x="65"
     inkscape:window-y="24"
     inkscape:window-maximized="1"
     inkscape:current-layer="svg2" /><g
     id="g4"><path
       d="M49.174,14.246c-2.529,0-4.586-2.057-4.586-4.585c0-2.529,2.057-4.586,4.586-4.586s4.586,2.058,4.586,4.586   C53.76,12.189,51.702,14.246,49.174,14.246z M49.174,7.074c-1.426,0-2.586,1.16-2.586,2.586c0,1.426,1.16,2.585,2.586,2.585   s2.586-1.16,2.586-2.585C51.76,8.234,50.599,7.074,49.174,7.074z"
       id="path6" /><path
       d="M64.5,86.197c0.55,0,1-0.44,1-1v-4.14c0-0.56-0.45-1-1-1H53.05v-3.71h1.08c0.55,0,1-0.44,1-1v-5.18c0-0.55-0.45-1-1-1   h-1.08v-40.03c6.21-1.71,10.79-7.4,10.79-14.15c0-8.09-6.58-14.67-14.67-14.67c-8.08,0-14.67,6.58-14.67,14.67   c0,6.77,4.61,12.48,10.85,14.16v40.02h-1.07c-0.56,0-1,0.45-1,1v5.18c0,0.56,0.44,1,1,1h1.07v22.34c0,0.55,0.45,1,1,1h5.7   c0.55,0,1-0.45,1-1v-2.63H64.5c0.55,0,1-0.45,1-1v-4.15c0-0.55-0.45-1-1-1h-3.15v-3.71H64.5z M36.5,14.987   c0-6.99,5.69-12.67,12.67-12.67c6.99,0,12.67,5.68,12.67,12.67s-5.68,12.67-12.67,12.67C42.19,27.657,36.5,21.977,36.5,14.987z    M51.05,29.527v39.64h-3.7v-39.63c0.6,0.08,1.2,0.12,1.82,0.12C49.81,29.657,50.44,29.617,51.05,29.527z M51.05,97.687h-3.7v-21.34   h3.7V97.687z M45.28,74.347v-3.18h7.85v3.18H45.28z M60.35,91.907h3.15v2.15H53.05v-12H63.5v2.14h-3.15c-0.55,0-1,0.45-1,1v5.71   C59.35,91.457,59.8,91.907,60.35,91.907z"
       id="path8" /></g></svg>