<svg xmlns="http://www.w3.org/2000/svg" xmlns:xlink="http://www.w3.org/1999/xlink" version="1.1" x="0px" y="0px" viewBox="0 0 100 125" enable-background="new 0 0 100 100" xml:space="preserve"><g><g><path fill="#000000" d="M21.573,79.627c-0.02,0-0.039,0-0.059-0.002c-0.552-0.032-0.973-0.504-0.94-1.056    c0.055-0.953,1.449-23.417,9.918-30.342c2.033-1.662,4.317-2.325,6.802-1.97c3.615,0.516,6.896,2.723,9.751,6.558    c2.976,3.996,5.046,9.189,6.345,13.556c0.715-12.421,3.399-34.314,12.882-41.165c5.353-3.868,11.985-2.616,19.713,3.726    c0.427,0.35,0.488,0.98,0.139,1.407c-0.352,0.427-0.979,0.49-1.408,0.139c-6.358-5.219-11.772-6.694-16.093-4.389    C56.378,32.624,54.916,67.37,55.054,73.854c0.062,0.539,0.077,0.919,0.05,1.106c-0.067,0.449-0.436,0.82-0.887,0.87    c-0.456,0.052-0.883-0.215-1.046-0.638c-0.008-0.02-0.016-0.2-0.021-0.522l-0.025-0.004c0.086-1.415-4.183-24.722-16.114-26.427    c-1.929-0.274-3.647,0.228-5.252,1.539c-7.791,6.37-9.175,28.685-9.188,28.91C22.54,79.216,22.099,79.627,21.573,79.627z"/></g></g><g><g><path fill="#000000" d="M85.35,30.705c-0.021,0-0.044,0-0.066-0.002c-2.811-0.186-5.676-0.65-8.067-1.307    c-0.532-0.146-0.846-0.696-0.699-1.229c0.146-0.533,0.695-0.846,1.229-0.7c1.863,0.512,4.036,0.9,6.24,1.121    c-0.084-0.235-0.172-0.474-0.256-0.703c-0.17-0.462-0.326-0.889-0.417-1.207c-0.133-0.456-0.244-0.935-0.355-1.417    c-0.172-0.746-0.335-1.45-0.585-2.087c-0.201-0.514,0.053-1.094,0.567-1.295c0.511-0.201,1.094,0.052,1.296,0.567    c0.302,0.773,0.489,1.583,0.67,2.366c0.104,0.446,0.205,0.889,0.328,1.312c0.082,0.284,0.223,0.661,0.373,1.071    c0.285,0.773,0.607,1.65,0.729,2.338c0.053,0.302-0.036,0.612-0.241,0.84C85.903,30.584,85.633,30.705,85.35,30.705z"/></g></g><text x="0" y="115" fill="#000000" font-size="5px" font-weight="bold" font-family="'Helvetica Neue', Helvetica, Arial-Unicode, Arial, Sans-serif">Created by Michael Rojas</text><text x="0" y="120" fill="#000000" font-size="5px" font-weight="bold" font-family="'Helvetica Neue', Helvetica, Arial-Unicode, Arial, Sans-serif">from the Noun Project</text></svg>