<svg xmlns:dc="http://purl.org/dc/elements/1.1/" xmlns:cc="http://creativecommons.org/ns#" xmlns:rdf="http://www.w3.org/1999/02/22-rdf-syntax-ns#" xmlns:svg="http://www.w3.org/2000/svg" xmlns="http://www.w3.org/2000/svg" xmlns:sodipodi="http://sodipodi.sourceforge.net/DTD/sodipodi-0.dtd" xmlns:inkscape="http://www.inkscape.org/namespaces/inkscape" version="1.1" x="0px" y="0px" viewBox="0 0 92 115"><g transform="translate(0,-960.3622)"><path style="text-indent:0;text-transform:none;direction:ltr;block-progression:tb;baseline-shift:baseline;color:#000000;enable-background:accumulate;" d="m 87,1047.3622 0,-1 0,-80.00001 0,-1 -1,0 -80,0 -1,0 0,1 0,80.00001 0,1 1,0 80,0 1,0 z m -2,-2 -78,0 0,-78.00001 78,0 0,78.00001 z m -39,-8 c 9.07686,-9.6728 16.96202,-18.4892 25,-27 l -14,0 0,-34.00001 0,-1 -1,0 -20,0 -1,0 0,1 0,34.00001 -14,0 c 8.4026,9.0215 16.6529,17.9271 25,27 z m 0,-3 -20,-22 11,0 0,-35.00001 18,0 0,35.00001 11,0 -20,22 z" fill="#000000" fill-opacity="1" stroke="none" marker="none" visibility="visible" display="inline" overflow="visible"/></g><text x="0" y="107" fill="#000000" font-size="5px" font-weight="bold" font-family="'Helvetica Neue', Helvetica, Arial-Unicode, Arial, Sans-serif">Created by iconsphere</text><text x="0" y="112" fill="#000000" font-size="5px" font-weight="bold" font-family="'Helvetica Neue', Helvetica, Arial-Unicode, Arial, Sans-serif">from the Noun Project</text></svg>