<svg xmlns:dc="http://purl.org/dc/elements/1.1/" xmlns:cc="http://creativecommons.org/ns#" xmlns:rdf="http://www.w3.org/1999/02/22-rdf-syntax-ns#" xmlns:svg="http://www.w3.org/2000/svg" xmlns="http://www.w3.org/2000/svg" xmlns:sodipodi="http://sodipodi.sourceforge.net/DTD/sodipodi-0.dtd" xmlns:inkscape="http://www.inkscape.org/namespaces/inkscape" version="1.1" x="0px" y="0px" viewBox="0 0 100 125"><g transform="translate(0,-952.36218)"><path style="text-indent:0;text-transform:none;direction:ltr;block-progression:tb;baseline-shift:baseline;color:#000000;enable-background:accumulate;" d="m 12,962.36213 c -1.10954,0.01 -1.99105,1.0015 -2,2 l 0,76.00007 c 10e-5,1.0472 0.95283,1.9999 2,2 l 76,0 c 1.04717,-10e-5 1.9999,-0.9528 2,-2 l 0,-76.00007 c -1e-4,-1.0471 -0.95283,-1.9999 -2,-2 l -76,0 z m 2,4 72,0 0,72.00007 -72,0 0,-72.00007 z m 14,33.99997 c -1.10457,0 -2,0.8954 -2,2 0,1.1045 0.89543,2 2,2 l 44,0 c 1.10457,0 2,-0.8955 2,-2 0,-1.1046 -0.89543,-2 -2,-2 l -44,0 z" fill="#000000" fill-opacity="1" stroke="none" marker="none" visibility="visible" display="inline" overflow="visible"/></g><text x="0" y="115" fill="#000000" font-size="5px" font-weight="bold" font-family="'Helvetica Neue', Helvetica, Arial-Unicode, Arial, Sans-serif">Created by unlimicon</text><text x="0" y="120" fill="#000000" font-size="5px" font-weight="bold" font-family="'Helvetica Neue', Helvetica, Arial-Unicode, Arial, Sans-serif">from the Noun Project</text></svg>