<?xml version="1.0" encoding="UTF-8" standalone="no"?>
<svg id="svg2" xmlns:rdf="http://www.w3.org/1999/02/22-rdf-syntax-ns#" xmlns="http://www.w3.org/2000/svg" enable-background="new 0 0 100 100" xml:space="preserve" height="100%" width="100%" version="1.1" y="0px" x="0px" xmlns:cc="http://creativecommons.org/ns#" xmlns:dc="http://purl.org/dc/elements/1.1/" viewBox="0 0 93.665 93.676"><metadata id="metadata16"><rdf:RDF><cc:Work rdf:about=""><dc:format>image/svg+xml</dc:format><dc:type rdf:resource="http://purl.org/dc/dcmitype/StillImage"/><dc:title/></cc:Work></rdf:RDF></metadata><path id="path4" d="M46.835,0c-25.826,0-46.835,21.009-46.835,46.841,0,25.826,21.009,46.835,46.835,46.835s46.83-21.009,46.83-46.835c0-25.832-21.004-46.841-46.83-46.841zm0,83.709c-20.36,0-36.875-16.508-36.875-36.868,0-20.369,16.515-36.874,36.875-36.874,20.361,0,36.873,16.505,36.873,36.874,0,20.36-16.512,36.868-36.873,36.868z"/><path id="path6" d="m37.396,31.478c-0.829-0.833-2.949-0.833-2.949,0v33.845c0,0.834,2.125,0.834,2.957,0l27.781-15.417c0.832-0.829,0.846-2.178,0.016-3.01l-27.805-15.418z"/></svg>
