<svg xmlns="http://www.w3.org/2000/svg" xmlns:xlink="http://www.w3.org/1999/xlink" version="1.1" x="0px" y="0px" viewBox="0 0 100 125" enable-background="new 0 0 100 100" xml:space="preserve"><g><path d="M50.001,68.908c-0.127,0-0.252-0.031-0.365-0.094c-0.915-0.512-22.395-12.631-22.395-24.619   c0-7.593,5.09-13.104,12.104-13.104c3.89,0,8.203,2.599,10.656,5.261c2.451-2.662,6.765-5.261,10.655-5.261   c7.014,0,12.104,5.511,12.104,13.104c0,11.988-21.479,24.107-22.394,24.619C50.253,68.877,50.126,68.908,50.001,68.908z    M39.345,32.592c-6.145,0-10.604,4.88-10.604,11.604c0,10.311,18.414,21.441,21.26,23.098C52.846,65.635,71.26,54.5,71.26,44.195   c0-6.724-4.459-11.604-10.604-11.604c-3.754,0-7.99,2.771-10.069,5.378c-0.285,0.356-0.888,0.356-1.173,0   C47.334,35.363,43.099,32.592,39.345,32.592z"/></g><g><path d="M32.038,41.814c-0.104,0-0.21-0.021-0.311-0.067c-0.377-0.172-0.543-0.617-0.371-0.994c1.449-3.18,4.045-5.337,7.311-6.076   c0.405-0.093,0.806,0.162,0.896,0.566c0.092,0.404-0.162,0.806-0.566,0.897c-2.797,0.633-5.025,2.492-6.275,5.235   C32.595,41.651,32.323,41.814,32.038,41.814z"/></g><text x="0" y="115" fill="#000000" font-size="5px" font-weight="bold" font-family="'Helvetica Neue', Helvetica, Arial-Unicode, Arial, Sans-serif">Created by Sergey Demushkin</text><text x="0" y="120" fill="#000000" font-size="5px" font-weight="bold" font-family="'Helvetica Neue', Helvetica, Arial-Unicode, Arial, Sans-serif">from the Noun Project</text></svg>