<svg xmlns="http://www.w3.org/2000/svg" xmlns:xlink="http://www.w3.org/1999/xlink" version="1.1" x="0px" y="0px" viewBox="0 0 100 125" style="enable-background:new 0 0 100 100;" xml:space="preserve"><circle cx="47.5" cy="7.5" r="2.5"/><circle cx="47.5" cy="17.5" r="2.5"/><circle cx="47.5" cy="27.5" r="2.5"/><circle cx="47.5" cy="37.5" r="2.5"/><circle cx="47.5" cy="57.5" r="2.5"/><circle cx="47.5" cy="67.5" r="2.5"/><circle cx="47.5" cy="77.5" r="2.5"/><circle cx="57.5" cy="7.5" r="2.5"/><circle cx="67.5" cy="7.5" r="2.5"/><circle cx="77.5" cy="7.5" r="2.5"/><circle cx="87.5" cy="7.5" r="2.5"/><circle cx="87.5" cy="17.5" r="2.5"/><circle cx="87.5" cy="27.5" r="2.5"/><circle cx="87.5" cy="37.5" r="2.5"/><circle cx="87.5" cy="47.5" r="2.5"/><circle cx="87.5" cy="57.5" r="2.5"/><circle cx="87.5" cy="67.5" r="2.5"/><circle cx="87.5" cy="77.5" r="2.5"/><circle cx="87.5" cy="87.5" r="2.5"/><circle cx="77.5" cy="87.5" r="2.5"/><circle cx="67.5" cy="87.5" r="2.5"/><circle cx="57.5" cy="87.5" r="2.5"/><circle cx="47.5" cy="87.5" r="2.5"/><circle cx="37.5" cy="87.5" r="2.5"/><circle cx="27.5" cy="87.5" r="2.5"/><circle cx="17.5" cy="87.5" r="2.5"/><circle cx="7.5" cy="87.5" r="2.5"/><circle cx="7.5" cy="77.5" r="2.5"/><circle cx="7.5" cy="67.5" r="2.5"/><circle cx="7.5" cy="57.5" r="2.5"/><circle cx="7.5" cy="47.5" r="2.5"/><circle cx="17.5" cy="47.5" r="2.5"/><circle cx="27.5" cy="47.5" r="2.5"/><circle cx="37.5" cy="47.5" r="2.5"/><circle cx="47.5" cy="47.5" r="2.5"/><circle cx="57.5" cy="47.5" r="2.5"/><circle cx="67.5" cy="47.5" r="2.5"/><circle cx="77.5" cy="47.5" r="2.5"/><circle cx="7.5" cy="37.5" r="2.5"/><circle cx="7.5" cy="27.5" r="2.5"/><circle cx="7.5" cy="17.5" r="2.5"/><circle cx="7.5" cy="7.5" r="2.5"/><circle cx="17.5" cy="7.5" r="2.5"/><circle cx="27.5" cy="7.5" r="2.5"/><circle cx="37.5" cy="7.5" r="2.5"/><text x="0" y="115" fill="#000000" font-size="5px" font-weight="bold" font-family="'Helvetica Neue', Helvetica, Arial-Unicode, Arial, Sans-serif">Created by Arthur Shlain</text><text x="0" y="120" fill="#000000" font-size="5px" font-weight="bold" font-family="'Helvetica Neue', Helvetica, Arial-Unicode, Arial, Sans-serif">from the Noun Project</text></svg>