<?xml version="1.0" encoding="UTF-8" standalone="no"?>
<!-- Created with Inkscape (http://www.inkscape.org/) -->

<svg
   xmlns:dc="http://purl.org/dc/elements/1.1/"
   xmlns:cc="http://creativecommons.org/ns#"
   xmlns:rdf="http://www.w3.org/1999/02/22-rdf-syntax-ns#"
   xmlns:svg="http://www.w3.org/2000/svg"
   xmlns="http://www.w3.org/2000/svg"
   xmlns:sodipodi="http://sodipodi.sourceforge.net/DTD/sodipodi-0.dtd"
   xmlns:inkscape="http://www.inkscape.org/namespaces/inkscape"
   width="480"
   height="400"
   id="compo"
   version="1.1"
   inkscape:version="0.48.4 r9939"
   sodipodi:docname="full.svg">
  <defs
     id="defs4" />
  <sodipodi:namedview
     id="base"
     pagecolor="#ffffff"
     bordercolor="#666666"
     borderopacity="1.0"
     inkscape:pageopacity="0.0"
     inkscape:pageshadow="2"
     inkscape:zoom="1.979899"
     inkscape:cx="214.70031"
     inkscape:cy="204.26276"
     inkscape:document-units="px"
     inkscape:current-layer="layer1"
     showgrid="false"
     inkscape:window-width="1855"
     inkscape:window-height="1176"
     inkscape:window-x="65"
     inkscape:window-y="24"
     inkscape:window-maximized="1" />
  <metadata
     id="metadata7">
    <rdf:RDF>
      <cc:Work
         rdf:about="">
        <dc:format>image/svg+xml</dc:format>
        <dc:type
           rdf:resource="http://purl.org/dc/dcmitype/StillImage" />
        <dc:title></dc:title>
      </cc:Work>
    </rdf:RDF>
  </metadata>
  <g
     inkscape:label="Calque 1"
     inkscape:groupmode="layer"
     id="layer1"
     transform="translate(0,-652.36218)">
    <g
       id="g3252"
       transform="translate(139.17662,819.89404)">
      <g
         transform="matrix(0.41345981,0,0,0.37990032,171.90647,-136.12976)"
         id="key">
        <path
           inkscape:connector-curvature="0"
           id="path6"
           d="m 49.174,14.246 c -2.529,0 -4.586,-2.057 -4.586,-4.585 0,-2.529 2.057,-4.586 4.586,-4.586 2.529,0 4.586,2.058 4.586,4.586 0,2.528 -2.058,4.585 -4.586,4.585 z m 0,-7.172 c -1.426,0 -2.586,1.16 -2.586,2.586 0,1.426 1.16,2.585 2.586,2.585 1.426,0 2.586,-1.16 2.586,-2.585 0,-1.426 -1.161,-2.586 -2.586,-2.586 z" />
        <path
           inkscape:connector-curvature="0"
           id="path8"
           d="m 64.5,86.197 c 0.55,0 1,-0.44 1,-1 v -4.14 c 0,-0.56 -0.45,-1 -1,-1 H 53.05 v -3.71 h 1.08 c 0.55,0 1,-0.44 1,-1 v -5.18 c 0,-0.55 -0.45,-1 -1,-1 h -1.08 v -40.03 c 6.21,-1.71 10.79,-7.4 10.79,-14.15 0,-8.09 -6.58,-14.67 -14.67,-14.67 -8.08,0 -14.67,6.58 -14.67,14.67 0,6.77 4.61,12.48 10.85,14.16 v 40.02 h -1.07 c -0.56,0 -1,0.45 -1,1 v 5.18 c 0,0.56 0.44,1 1,1 h 1.07 v 22.34 c 0,0.55 0.45,1 1,1 h 5.7 c 0.55,0 1,-0.45 1,-1 v -2.63 H 64.5 c 0.55,0 1,-0.45 1,-1 v -4.15 c 0,-0.55 -0.45,-1 -1,-1 h -3.15 v -3.71 h 3.15 z m -28,-71.21 c 0,-6.99 5.69,-12.67 12.67,-12.67 6.99,0 12.67,5.68 12.67,12.67 0,6.99 -5.68,12.67 -12.67,12.67 -6.98,0 -12.67,-5.68 -12.67,-12.67 z m 14.55,14.54 v 39.64 h -3.7 v -39.63 c 0.6,0.08 1.2,0.12 1.82,0.12 0.64,0 1.27,-0.04 1.88,-0.13 z m 0,68.16 h -3.7 v -21.34 h 3.7 v 21.34 z m -5.77,-23.34 v -3.18 h 7.85 v 3.18 h -7.85 z m 15.07,17.56 h 3.15 v 2.15 H 53.05 v -12 H 63.5 v 2.14 h -3.15 c -0.55,0 -1,0.45 -1,1 v 5.71 c 0,0.55 0.45,1 1,1 z" />
      </g>
      <g
         id="rail"
         transform="matrix(10.102235,0,0,2.7677669,-142.74216,39.471711)">
        <g
           id="g3238">
          <path
             id="path3240"
             d="M 46.1,25.1 H 1.7 c -0.5,0 -1,-0.399 -1,-1 0,-0.601 0.4,-1 1,-1 h 44.5 c 0.5,0 1,0.4 1,1 0,0.6 -0.5,1 -1.1,1 z"
             inkscape:connector-curvature="0" />
        </g>
      </g>
      <g
         id="chariot"
         transform="translate(28.868384,-137.79648)">
        <g
           id="g3361"
           transform="matrix(0.48299279,0,0,0.46834076,56.610567,182.17033)">
          <g
             id="g3363">
            <path
               id="path3365"
               d="m 83.073593,53.494924 h -123 c -1.1,0 -2,-0.9 -2,-2 v -17.5 c 0,-1.1 0.9,-2 2,-2 h 123 c 1.1,0 2,0.9 2,2 v 17.5 c 0,1.1 -0.9,2 -2,2 z m -121,-4 h 119 v -13.5 h -119 v 13.5 z"
               inkscape:connector-curvature="0"
               style="fill:#000000" />
          </g>
          <g
             id="g3367"
             transform="translate(-42.426407,-0.50507627)">
            <path
               id="path3369"
               d="m 93.7,127.5 c -7.2,0 -13,-5.8 -13,-13 0,-2 0.5,-4 1.4,-5.8 2.2,-4.4 6.7,-7.2 11.7,-7.2 5,0 9.4,2.8 11.7,7.2 0.9,1.8 1.4,3.8 1.4,5.8 -0.2,7.2 -6,13 -13.2,13 z m 0,-22 c -3.4,0 -6.5,1.9 -8.1,5 -0.6,1.3 -1,2.6 -1,4 0,5 4.1,9 9,9 5,0 9,-4 9,-9 0,-1.4 -0.3,-2.8 -1,-4 -1.4,-3.1 -4.5,-5 -7.9,-5 z"
               inkscape:connector-curvature="0"
               style="fill:#000000" />
          </g>
          <g
             id="g3371"
             transform="translate(-42.426407,-0.50507627)">
            <path
               id="path3373"
               d="m 93.7,120.5 c -3.3,0 -6,-2.7 -6,-6 0,-0.9 0.2,-1.8 0.6,-2.7 1,-2.1 3.1,-3.3 5.4,-3.3 2.3,0 4.4,1.3 5.4,3.3 0.4,0.8 0.6,1.7 0.6,2.7 0,3.3 -2.7,6 -6,6 z m 0,-10 c -1.5,0 -2.9,0.9 -3.6,2.2 -0.3,0.6 -0.4,1.2 -0.4,1.8 0,2.2 1.8,4 4,4 2.2,0 4,-1.8 4,-4 0,-0.6 -0.1,-1.2 -0.4,-1.8 -0.7,-1.4 -2.1,-2.2 -3.6,-2.2 z"
               inkscape:connector-curvature="0"
               style="fill:#000000" />
          </g>
          <g
             id="g3375"
             transform="translate(-42.426407,-0.50507627)">
            <path
               id="path3377"
               d="m 34.3,127.5 c -7.2,0 -13,-5.8 -13,-13 0,-2 0.5,-4 1.4,-5.8 2.2,-4.4 6.7,-7.2 11.7,-7.2 5,0 9.4,2.8 11.7,7.2 0.9,1.8 1.4,3.8 1.4,5.8 -0.1,7.2 -6,13 -13.2,13 z m 0,-22 c -3.4,0 -6.5,1.9 -8.1,5 -0.6,1.3 -1,2.6 -1,4 0,5 4.1,9 9,9 4.9,0 9,-4 9,-9 0,-1.4 -0.3,-2.8 -1,-4 -1.3,-3.1 -4.4,-5 -7.9,-5 z"
               inkscape:connector-curvature="0"
               style="fill:#000000" />
          </g>
          <g
             id="g3379"
             transform="translate(-42.426407,-0.50507627)">
            <path
               id="path3381"
               d="m 34.3,120.5 c -3.3,0 -6,-2.7 -6,-6 0,-0.9 0.2,-1.8 0.6,-2.7 1,-2.1 3.1,-3.3 5.4,-3.3 2.3,0 4.4,1.3 5.4,3.3 0.4,0.8 0.6,1.8 0.6,2.7 0.1,3.3 -2.6,6 -6,6 z m 0,-10 c -1.5,0 -2.9,0.9 -3.6,2.2 -0.3,0.6 -0.4,1.2 -0.4,1.8 0,2.2 1.8,4 4,4 2.2,0 4,-1.8 4,-4 0,-0.6 -0.1,-1.2 -0.4,-1.8 -0.7,-1.4 -2,-2.2 -3.6,-2.2 z"
               inkscape:connector-curvature="0"
               style="fill:#000000" />
          </g>
          <g
             id="g3387"
             transform="translate(-42.426407,-0.50507627)">
            <path
               id="path3389"
               d="m 111.3,111.6 h -7.7 c -0.8,0 -1.4,-0.4 -1.8,-1.1 -1.5,-3.1 -4.6,-5 -8.1,-5 -3.4,0 -6.5,1.9 -8.1,5 -0.3,0.7 -1,1.1 -1.8,1.1 H 44.2 c -0.8,0 -1.4,-0.4 -1.8,-1.1 -1.5,-3.1 -4.6,-5 -8.1,-5 -3.5,0 -6.5,1.9 -8.1,5 -0.3,0.7 -1,1.1 -1.8,1.1 h -7.7 c -1,0 -1.8,-0.7 -2,-1.7 L 6.4,52.3 C 6.3,51.7 6.5,51.1 6.9,50.7 7.3,50.3 7.8,50 8.4,50 h 111.3 c 0.6,0 1.1,0.3 1.5,0.7 0.4,0.4 0.5,1 0.5,1.6 l -8.4,57.5 c -0.2,1 -1,1.8 -2,1.8 z m -6.6,-4 h 4.8 l 7.8,-53.5 H 10.7 l 7.8,53.5 h 4.8 c 2.4,-3.8 6.5,-6.1 11,-6.1 4.5,0 8.7,2.3 11,6.1 h 37.3 c 2.4,-3.8 6.5,-6.1 11,-6.1 4.6,0 8.7,2.3 11.1,6.1 z"
               inkscape:connector-curvature="0"
               style="fill:#000000" />
          </g>
          <g
             id="g3391"
             transform="translate(-42.426407,-0.50507627)">
            <path
               id="path3393"
               d="m 97.7,84.3 c -0.6,0 -1,-0.4 -1,-1 V 60.6 c 0,-0.6 0.4,-1 1,-1 0.6,0 1,0.4 1,1 v 22.7 c 0,0.5 -0.5,1 -1,1 z"
               inkscape:connector-curvature="0"
               style="fill:#000000" />
          </g>
          <g
             id="g3395"
             transform="translate(-42.426407,-0.50507627)">
            <path
               id="path3397"
               d="m 75.2,84.3 c -0.6,0 -1,-0.4 -1,-1 V 60.6 c 0,-0.6 0.4,-1 1,-1 0.6,0 1,0.4 1,1 v 22.7 c 0,0.5 -0.4,1 -1,1 z"
               inkscape:connector-curvature="0"
               style="fill:#000000" />
          </g>
          <g
             id="g3399"
             transform="translate(-42.426407,-0.50507627)">
            <path
               id="path3401"
               d="m 52.8,84.3 c -0.6,0 -1,-0.4 -1,-1 V 60.6 c 0,-0.6 0.4,-1 1,-1 0.6,0 1,0.4 1,1 v 22.7 c 0,0.5 -0.5,1 -1,1 z"
               inkscape:connector-curvature="0"
               style="fill:#000000" />
          </g>
          <g
             id="g3403"
             transform="translate(-42.426407,-0.50507627)">
            <path
               id="path3405"
               d="m 30.3,84.3 c -0.6,0 -1,-0.4 -1,-1 V 60.6 c 0,-0.6 0.4,-1 1,-1 0.6,0 1,0.4 1,1 v 22.7 c 0,0.5 -0.4,1 -1,1 z"
               inkscape:connector-curvature="0"
               style="fill:#000000" />
          </g>
          <g
             id="g3407"
             transform="translate(-42.426407,-0.50507627)">
            <path
               id="path3409"
               d="M 113.9,92.8 H 14.1 c -0.6,0 -1,-0.4 -1,-1 0,-0.6 0.4,-1 1,-1 h 99.7 c 0.6,0 1,0.4 1,1 0,0.6 -0.4,1 -0.9,1 z"
               inkscape:connector-curvature="0"
               style="fill:#000000" />
          </g>
        </g>
      </g>
    </g>
  </g>
</svg>
