<?xml version="1.0" encoding="UTF-8" standalone="no"?>
<!-- Created with Inkscape (http://www.inkscape.org/) -->
<svg id="compo" xmlns:rdf="http://www.w3.org/1999/02/22-rdf-syntax-ns#" xmlns="http://www.w3.org/2000/svg" viewBox="0 0 480 400" preserveAspectRatio="xMidYMid meet" version="1.1" xmlns:cc="http://creativecommons.org/ns#" xmlns:dc="http://purl.org/dc/elements/1.1/">
 <metadata id="metadata7">
  <rdf:RDF>
   <cc:Work rdf:about="">
    <dc:format>image/svg+xml</dc:format>
    <dc:type rdf:resource="http://purl.org/dc/dcmitype/StillImage"/>
    <dc:title/>
   </cc:Work>
  </rdf:RDF>
 </metadata>
 <g id="layer1" transform="translate(0,-652.36218)">
  <g id="g3252" transform="translate(139.17662,819.89404)">
   <g id="key" transform="matrix(0.41345981,0,0,0.37990032,171.90647,-136.12976)">
    <path id="path6" d="m49.174,14.246c-2.529,0-4.586-2.057-4.586-4.585,0-2.529,2.057-4.586,4.586-4.586s4.586,2.058,4.586,4.586-2.058,4.585-4.586,4.585zm0-7.172c-1.426,0-2.586,1.16-2.586,2.586s1.16,2.585,2.586,2.585,2.586-1.16,2.586-2.585c0-1.426-1.161-2.586-2.586-2.586z"/>
    <path id="path8" d="m64.5,86.197c0.55,0,1-0.44,1-1v-4.14c0-0.56-0.45-1-1-1h-11.45v-3.71h1.08c0.55,0,1-0.44,1-1v-5.18c0-0.55-0.45-1-1-1h-1.08v-40.03c6.21-1.71,10.79-7.4,10.79-14.15,0-8.09-6.58-14.67-14.67-14.67-8.08,0-14.67,6.58-14.67,14.67,0,6.77,4.61,12.48,10.85,14.16v40.02h-1.07c-0.56,0-1,0.45-1,1v5.18c0,0.56,0.44,1,1,1h1.07v22.34c0,0.55,0.45,1,1,1h5.7c0.55,0,1-0.45,1-1v-2.63h11.45c0.55,0,1-0.45,1-1v-4.15c0-0.55-0.45-1-1-1h-3.15v-3.71h3.15zm-28-71.21c0-6.99,5.69-12.67,12.67-12.67,6.99,0,12.67,5.68,12.67,12.67s-5.68,12.67-12.67,12.67c-6.98,0-12.67-5.68-12.67-12.67zm14.55,14.54v39.64h-3.7v-39.63c0.6,0.08,1.2,0.12,1.82,0.12,0.64,0,1.27-0.04,1.88-0.13zm0,68.16h-3.7v-21.34h3.7v21.34zm-5.77-23.34v-3.18h7.85v3.18h-7.85zm15.07,17.56h3.15v2.15h-10.45v-12h10.45v2.14h-3.15c-0.55,0-1,0.45-1,1v5.71c0,0.55,0.45,1,1,1z"/>
   </g>
   <g id="rail" transform="matrix(10.102235,0,0,2.7677669,-142.74216,39.471711)">
    <g id="g3238">
     <path id="path3240" d="M46.1,25.1h-44.4c-0.5,0-1-0.399-1-1s0.4-1,1-1h44.5c0.5,0,1,0.4,1,1s-0.5,1-1.1,1z"/>
    </g>
   </g>
   <g id="chariot" transform="translate(28.868384,-137.79648)">
    <g id="g3361" transform="matrix(0.48299279,0,0,0.46834076,56.610567,182.17033)">
     <g id="g3363">
      <path id="path3365" fill="#000" d="m83.074,53.495h-123c-1.1,0-2-0.9-2-2v-17.5c0-1.1,0.9-2,2-2h123c1.1,0,2,0.9,2,2v17.5c0,1.1-0.9,2-2,2zm-121-4h119v-13.5h-119v13.5z"/>
     </g>
     <g id="g3367" transform="translate(-42.426407,-0.50507627)">
      <path id="path3369" fill="#000" d="m93.7,127.5c-7.2,0-13-5.8-13-13,0-2,0.5-4,1.4-5.8,2.2-4.4,6.7-7.2,11.7-7.2s9.4,2.8,11.7,7.2c0.9,1.8,1.4,3.8,1.4,5.8-0.2,7.2-6,13-13.2,13zm0-22c-3.4,0-6.5,1.9-8.1,5-0.6,1.3-1,2.6-1,4,0,5,4.1,9,9,9,5,0,9-4,9-9,0-1.4-0.3-2.8-1-4-1.4-3.1-4.5-5-7.9-5z"/>
     </g>
     <g id="g3371" transform="translate(-42.426407,-0.50507627)">
      <path id="path3373" fill="#000" d="m93.7,120.5c-3.3,0-6-2.7-6-6,0-0.9,0.2-1.8,0.6-2.7,1-2.1,3.1-3.3,5.4-3.3s4.4,1.3,5.4,3.3c0.4,0.8,0.6,1.7,0.6,2.7,0,3.3-2.7,6-6,6zm0-10c-1.5,0-2.9,0.9-3.6,2.2-0.3,0.6-0.4,1.2-0.4,1.8,0,2.2,1.8,4,4,4s4-1.8,4-4c0-0.6-0.1-1.2-0.4-1.8-0.7-1.4-2.1-2.2-3.6-2.2z"/>
     </g>
     <g id="g3375" transform="translate(-42.426407,-0.50507627)">
      <path id="path3377" fill="#000" d="m34.3,127.5c-7.2,0-13-5.8-13-13,0-2,0.5-4,1.4-5.8,2.2-4.4,6.7-7.2,11.7-7.2s9.4,2.8,11.7,7.2c0.9,1.8,1.4,3.8,1.4,5.8-0.1,7.2-6,13-13.2,13zm0-22c-3.4,0-6.5,1.9-8.1,5-0.6,1.3-1,2.6-1,4,0,5,4.1,9,9,9s9-4,9-9c0-1.4-0.3-2.8-1-4-1.3-3.1-4.4-5-7.9-5z"/>
     </g>
     <g id="g3379" transform="translate(-42.426407,-0.50507627)">
      <path id="path3381" fill="#000" d="m34.3,120.5c-3.3,0-6-2.7-6-6,0-0.9,0.2-1.8,0.6-2.7,1-2.1,3.1-3.3,5.4-3.3s4.4,1.3,5.4,3.3c0.4,0.8,0.6,1.8,0.6,2.7,0.1,3.3-2.6,6-6,6zm0-10c-1.5,0-2.9,0.9-3.6,2.2-0.3,0.6-0.4,1.2-0.4,1.8,0,2.2,1.8,4,4,4s4-1.8,4-4c0-0.6-0.1-1.2-0.4-1.8-0.7-1.4-2-2.2-3.6-2.2z"/>
     </g>
     <g id="g3387" transform="translate(-42.426407,-0.50507627)">
      <path id="path3389" fill="#000" d="m111.3,111.6h-7.7c-0.8,0-1.4-0.4-1.8-1.1-1.5-3.1-4.6-5-8.1-5-3.4,0-6.5,1.9-8.1,5-0.3,0.7-1,1.1-1.8,1.1h-39.6c-0.8,0-1.4-0.4-1.8-1.1-1.5-3.1-4.6-5-8.1-5s-6.5,1.9-8.1,5c-0.3,0.7-1,1.1-1.8,1.1h-7.7c-1,0-1.8-0.7-2-1.7l-8.3-57.6c-0.1-0.6,0.1-1.2,0.5-1.6s0.9-0.7,1.5-0.7h111.3c0.6,0,1.1,0.3,1.5,0.7s0.5,1,0.5,1.6l-8.4,57.5c-0.2,1-1,1.8-2,1.8zm-6.6-4h4.8l7.8-53.5h-106.6l7.8,53.5h4.8c2.4-3.8,6.5-6.1,11-6.1s8.7,2.3,11,6.1h37.3c2.4-3.8,6.5-6.1,11-6.1,4.6,0,8.7,2.3,11.1,6.1z"/>
     </g>
     <g id="g3391" transform="translate(-42.426407,-0.50507627)">
      <path id="path3393" fill="#000" d="m97.7,84.3c-0.6,0-1-0.4-1-1v-22.7c0-0.6,0.4-1,1-1s1,0.4,1,1v22.7c0,0.5-0.5,1-1,1z"/>
     </g>
     <g id="g3395" transform="translate(-42.426407,-0.50507627)">
      <path id="path3397" fill="#000" d="m75.2,84.3c-0.6,0-1-0.4-1-1v-22.7c0-0.6,0.4-1,1-1s1,0.4,1,1v22.7c0,0.5-0.4,1-1,1z"/>
     </g>
     <g id="g3399" transform="translate(-42.426407,-0.50507627)">
      <path id="path3401" fill="#000" d="m52.8,84.3c-0.6,0-1-0.4-1-1v-22.7c0-0.6,0.4-1,1-1s1,0.4,1,1v22.7c0,0.5-0.5,1-1,1z"/>
     </g>
     <g id="g3403" transform="translate(-42.426407,-0.50507627)">
      <path id="path3405" fill="#000" d="m30.3,84.3c-0.6,0-1-0.4-1-1v-22.7c0-0.6,0.4-1,1-1s1,0.4,1,1v22.7c0,0.5-0.4,1-1,1z"/>
     </g>
     <g id="g3407" transform="translate(-42.426407,-0.50507627)">
      <path id="path3409" fill="#000" d="M113.9,92.8h-99.8c-0.6,0-1-0.4-1-1s0.4-1,1-1h99.7c0.6,0,1,0.4,1,1s-0.4,1-0.9,1z"/>
     </g>
    </g>
   </g>
  </g>
 </g>
</svg>
