<?xml version="1.0" encoding="UTF-8" standalone="no"?>
<!-- Created with Inkscape (http://www.inkscape.org/) -->
<svg id="inputs" xmlns:rdf="http://www.w3.org/1999/02/22-rdf-syntax-ns#" xmlns="http://www.w3.org/2000/svg" viewBox="0 0 152.4039 149.93127" preserveAspectRatio="xMidYMid meet" height="100%" width="100%" version="1.1" preserveAspectRatio="xMidYMid meet" xmlns:cc="http://creativecommons.org/ns#" xmlns:dc="http://purl.org/dc/elements/1.1/">
    <metadata id="metadata7">
        <rdf:RDF>
            <cc:Work rdf:about="">
                <dc:format>image/svg+xml</dc:format>
                <dc:type rdf:resource="http://purl.org/dc/dcmitype/StillImage"/>
                <dc:title/>
            </cc:Work>
        </rdf:RDF>
    </metadata>
    <g id="layer1" transform="translate(-166.46591,-877.39654)">
        <g id="g3135" transform="translate(317.84641,932.62617)">
            <g id="g3121" transform="matrix(0.5,0,0,0.5,-100.84641,-438.99835)">
                <path id="path3123" style="direction:ltr;baseline-shift:baseline;block-progression:tb;text-indent:0;color:#000000;enable-background:accumulate;text-transform:none;" d="m87,1047.4,0-1,0-80,0-1-1,0-80,0-1,0,0,1,0,80,0,1,1,0,80,0,1,0zm-2-2-78,0,0-78,78,0,0,78zm-39-8c9.0769-9.6728,16.962-18.489,25-27h-14v-35h-22v35h-14c8.4026,9.0215,16.653,17.927,25,27zm0-3-20-22,11,0,0-35,18,0,0,35,11,0-20,22z" visibility="visible" overflow="visible" display="inline" fill="#000"/>
            </g>
            <g id="g3141" transform="matrix(-0.5,0,0,-0.5,-54.846413,478.47037)">
                <rect id="rect3824" stroke-dasharray="none" fill-rule="evenodd" stroke-dashoffset="0" height="79.292" width="79.292" stroke="#000" stroke-miterlimit="4" y="966.75" x="6.354" stroke-width="2.7081" fill="#E00"/>
                <path id="path3143" style="direction:ltr;baseline-shift:baseline;block-progression:tb;text-indent:0;color:#000000;enable-background:accumulate;text-transform:none;" d="m87,1047.4,0-1,0-80,0-1-1,0-80,0-1,0,0,1,0,80,0,1,1,0,80,0,1,0zm-2-2-78,0,0-78,78,0,0,78zm-39-8c9.0769-9.6728,16.962-18.489,25-27h-14v-35h-22v35h-14c8.4026,9.0215,16.653,17.927,25,27zm0-3-20-22,11,0,0-35,18,0,0,35,11,0-20,22z" visibility="visible" overflow="visible" display="inline" fill="#000"/>
            </g>
            <rect id="rect3170" stroke-dasharray="none" height="30.221" width="40.221" stroke="#000" stroke-miterlimit="4" y="4.6253" x="-97.957" stroke-width="0.77859" fill="none"/>
        </g>
        <text id="text3145" style="word-spacing:0px;letter-spacing:0px;" line-height="125%" font-family="Sans" xml:space="preserve" font-size="20px" y="915.19574" x="267.98114" font-weight="normal" font-style="normal" fill="#000000"><tspan id="tspan3147" y="915.19574" x="267.98114">+10</tspan></text>
        <text id="text3145-3" style="word-spacing:0px;letter-spacing:0px;" line-height="125%" font-family="Sans" xml:space="preserve" font-size="20px" y="1004.0892" x="269.12372" font-weight="normal" font-style="normal" fill="#000000"><tspan id="tspan3147-6" y="1004.0892" x="269.12372">-10</tspan></text>
        <text id="numberDisplay" style="word-spacing:0px;letter-spacing:0px;writing-mode:lr-tb;text-anchor:start;text-align:start;" line-height="125%" font-family="Sans" xml:space="preserve" font-size="20px" font-stretch="normal" font-variant="normal" y="960.1424" x="220.87402" font-weight="normal" font-style="normal" fill="#000000"><tspan id="tspan3963">0</tspan></text>
        <g id="g4044" transform="matrix(0.5125,0,0,0.38749966,191.46505,932.49967)">
            <g id="g4107" transform="translate(-49.861325,1.2581476)">
                <g id="g4093" transform="translate(0,-952.36218)">
                    <path id="path4095" style="direction:ltr;baseline-shift:baseline;block-progression:tb;text-indent:0;color:#000000;enable-background:accumulate;text-transform:none;" d="m22.065,962.36c-0.81567,0.01-1.4637,1.0015-1.4703,2v76c0.000073,1.0472,0.70047,1.9999,1.4703,2h55.871c0.76982-0.0001,1.4702-0.9528,1.4703-2v-76c-0.000073-1.0471-0.70047-1.9999-1.4703-2h-55.871zm1.4703,4,52.93,0,0,72-52.93,0,0-72zm10.292,34c-0.81202,0-1.4703,0.8954-1.4703,2,0,1.1045,0.65827,2,1.4703,2h32.346c0.81202,0,1.4703-0.8955,1.4703-2,0-1.1046-0.65827-2-1.4703-2h-32.346z" visibility="visible" overflow="visible" display="inline" fill="#000"/>
                </g>
            </g>
        </g>
    </g>
    <rect id="rect3824-3" stroke-dasharray="none" fill-rule="evenodd" stroke-dashoffset="0" height="39.646" width="39.646" stroke="#000" stroke-miterlimit="4" y="55.761" x="113.37" stroke-width="1.354" fill="#000"/>
</svg>
