<?xml version="1.0" encoding="UTF-8" standalone="no"?>
<!-- Created with Inkscape (http://www.inkscape.org/) -->
<svg id="inputs" xmlns:rdf="http://www.w3.org/1999/02/22-rdf-syntax-ns#" xmlns="http://www.w3.org/2000/svg" viewBox="0 0 152.4039 149.93" height="100%" width="100%" version="1.1" preserveAspectRatio="xMidYMid meet" xmlns:cc="http://creativecommons.org/ns#" xmlns:dc="http://purl.org/dc/elements/1.1/">
 <metadata id="metadata7">
  <rdf:RDF>
   <cc:Work rdf:about="">
    <dc:format>image/svg+xml</dc:format>
    <dc:type rdf:resource="http://purl.org/dc/dcmitype/StillImage"/>
    <dc:title/>
   </cc:Work>
  </rdf:RDF>
 </metadata>
 <g id="bg">
  <rect id="bgInputs" fill-rule="evenodd" height="149.93" width="152.4" y="0.0022144" x="0.0040912" fill="#080e1f"/>
  <text id="text3977" style="word-spacing:0px;letter-spacing:0px;" font-family="Sans" xml:space="preserve" font-size="40px" font-style="normal" line-height="125%" y="85.904709" x="64.446274" font-weight="normal" fill="#dcfafc"><tspan id="tspan3979" y="85.904709" x="64.446274">x</tspan></text>
<!-- <path id="path3974" d="m111.81,79.412a41.294,41.294,0,1,1,-82.589,0,41.294,41.294,0,1,1,82.589,0z" transform="translate(5.6861667,-4.4448681)" stroke-dashoffset="0" stroke="#dcfafc" stroke-dasharray="none" stroke-miterlimit="4" stroke-width="3.00000024" fill="none"/> --> </g>
 <g id="layerInputs" transform="translate(-166.46591,-877.39781)" fill="#FFF">
  <rect id="rect9" fill-rule="evenodd" fill-opacity="0.5" height="149.93" width="152.4" y="877.4" x="166.47" fill="#080e1f"/>
  <g id="g3135" transform="translate(320.51427,930.08176)">
   <g id="wheel" fill-rule="evenodd" stroke-dashoffset="0" stroke="#000" stroke-miterlimit="4" stroke-dasharray="none">
    <g id="up" class="item" transform="matrix(-0.5,0,0,-0.5,-54.84641,486.72916)">
     <rect id="rect3824" height="79.292" width="79.292" y="966.75" x="6.354" stroke-width="2.7081" fill="#dcfafc"/>
     <rect id="rect3000" height="48.452" width="4.3938" y="982.17" x="43.803" stroke-width="1.9021" fill="#000"/>
     <rect id="rect3000-3" transform="matrix(0,-1,1,0,0,0)" height="48.257" width="4.9457" y="21.871" x="-1008.9" stroke-width="2.014" fill="#000"/>
    </g>
    <g id="down" class="item" transform="matrix(-0.5,0,0,-0.5,-54.84641,564.22894)">
     <rect id="rect3824-6" height="79.292" width="79.292" y="966.75" x="6.354" stroke-width="2.7081" fill="#dcfafc"/>
     <rect id="rect3000-3-6" transform="matrix(0,-1,1,0,0,0)" height="36.412" width="5.1709" y="27.794" x="-1009" stroke-width="1.7888" fill="#000"/>
    </g>
   </g>
  </g>
 </g>
</svg>
