<?xml version="1.0" encoding="UTF-8" standalone="no"?>
<!-- Created with Inkscape (http://www.inkscape.org/) -->
<svg id="inputs" xmlns:rdf="http://www.w3.org/1999/02/22-rdf-syntax-ns#" xmlns="http://www.w3.org/2000/svg" viewBox="0 0 152.4039 149.93" height="100%" width="100%" version="1.1" preserveAspectRatio="xMidYMid meet" xmlns:cc="http://creativecommons.org/ns#" xmlns:dc="http://purl.org/dc/elements/1.1/">
 <metadata id="metadata7">
  <rdf:RDF>
   <cc:Work rdf:about="">
    <dc:format>image/svg+xml</dc:format>
    <dc:type rdf:resource="http://purl.org/dc/dcmitype/StillImage"/>
    <dc:title/>
   </cc:Work>
  </rdf:RDF>
 </metadata>
 <g id="layerInputs" fill="#FFF" transform="translate(-166.46591,-877.39781)">
  <rect id="bgInputs" fill-rule="evenodd" height="149.93" width="152.4" y="877.4" x="166.47" fill="#080e1f"/>
  <g id="g3135" transform="translate(320.51427,932.62617)">
      <rect id="numberDisplayBox" stroke-dasharray="none" class="item" height="39.711" width="83.883" stroke="#000" stroke-miterlimit="4" y="-0.1189" x="-97.702" stroke-width="1.2889" fill="#dcfafc"/>

   <g id="down" class="item" transform="matrix(0.5,0,0,0.5,-100.84641,-438.99835)">
    <rect id="rect3824-3" transform="scale(-1,-1)" fill-rule="evenodd" stroke-dashoffset="0" height="79.292" width="79.292" stroke="#000" stroke-dasharray="none" x="-85.646" y="-1046" stroke-miterlimit="4" stroke-width="2.7081" fill="#dcfafc"/>
    <path id="path3123" style="direction:ltr;baseline-shift:baseline;block-progression:tb;text-indent:0;color:#000000;enable-background:accumulate;text-transform:none;" d="m87,1047.4,0-1,0-80,0-1-1,0-80,0-1,0,0,1,0,80,0,1,1,0,80,0,1,0zm-2-2-78,0,0-78,78,0,0,78zm-39-8c9.0769-9.6728,16.962-18.489,25-27h-14v-35h-22v35h-14c8.4026,9.0215,16.653,17.927,25,27zm0-3-20-22,11,0,0-35,18,0,0,35,11,0-20,22z" visibility="visible" overflow="visible" display="inline" fill="#000"/>
   </g>
   <g id="up" class="item" transform="matrix(-0.5,0,0,-0.5,-54.846408,478.47037)">
    <rect id="rect3824" fill-rule="evenodd" stroke-dashoffset="0" height="79.292" width="79.292" stroke="#000" stroke-dasharray="none" x="6.354" y="966.75" stroke-miterlimit="4" stroke-width="2.7081" fill="#dcfafc"/>
    <path id="path3143" style="direction:ltr;baseline-shift:baseline;block-progression:tb;text-indent:0;color:#000000;enable-background:accumulate;text-transform:none;" d="m87,1047.4,0-1,0-80,0-1-1,0-80,0-1,0,0,1,0,80,0,1,1,0,80,0,1,0zm-2-2-78,0,0-78,78,0,0,78zm-39-8c9.0769-9.6728,16.962-18.489,25-27h-14v-35h-22v35h-14c8.4026,9.0215,16.653,17.927,25,27zm0-3-20-22,11,0,0-35,18,0,0,35,11,0-20,22z" visibility="visible" overflow="visible" display="inline" fill="#000"/>
   </g>
   <g id="jump" class="item" transform="matrix(0.62279472,0,0,0.71179782,-48.389954,43.47197)">
    <rect id="rect3824-36" stroke-dasharray="none" fill-rule="evenodd" stroke-dashoffset="0" transform="scale(-1,-1)" height="55.698" width="63.658" stroke="#000" stroke-miterlimit="4" y="5.4966" x="85.789" stroke-width="2.0337" fill="#dcfafc"/>
    <g id="g4" transform="matrix(0.71218707,0,0,0.71420134,-155.71172,-69.646262)">
     <g id="g10" transform="translate(0.05246586,0.21635651)">
      <g id="g12">
       <path id="path14" fill="#000" d="m85.35,30.705c-0.021,0-0.044,0-0.066-0.002-2.811-0.186-5.676-0.65-8.067-1.307-0.532-0.146-0.846-0.696-0.699-1.229,0.146-0.533,0.695-0.846,1.229-0.7,1.863,0.512,4.036,0.9,6.24,1.121-0.084-0.235-0.172-0.474-0.256-0.703-0.17-0.462-0.326-0.889-0.417-1.207-0.133-0.456-0.244-0.935-0.355-1.417-0.172-0.746-0.335-1.45-0.585-2.087-0.201-0.514,0.053-1.094,0.567-1.295,0.511-0.201,1.094,0.052,1.296,0.567,0.302,0.773,0.489,1.583,0.67,2.366,0.104,0.446,0.205,0.889,0.328,1.312,0.082,0.284,0.223,0.661,0.373,1.071,0.285,0.773,0.607,1.65,0.729,2.338,0.053,0.302-0.036,0.612-0.241,0.84-0.193,0.211-0.463,0.332-0.746,0.332z"/>
      </g>
     </g>
     <g id="g6">
      <path id="path8" fill="#000" d="m21.573,79.627c-0.02,0-0.039,0-0.059-0.002-0.552-0.032-0.973-0.504-0.94-1.056,0.055-0.953,1.449-23.417,9.918-30.342,2.033-1.662,4.317-2.325,6.802-1.97,3.615,0.516,6.896,2.723,9.751,6.558,2.976,3.996,5.046,9.189,6.345,13.556,0.715-12.421,3.399-34.314,12.882-41.165,5.353-3.868,11.985-2.616,19.713,3.726,0.427,0.35,0.488,0.98,0.139,1.407-0.352,0.427-0.979,0.49-1.408,0.139-6.358-5.219-11.772-6.694-16.093-4.389-12.245,6.535-13.707,41.281-13.569,47.765,0.062,0.539,0.077,0.919,0.05,1.106-0.067,0.449-0.436,0.82-0.887,0.87-0.456,0.052-0.883-0.215-1.046-0.638-0.008-0.02-0.016-0.2-0.021-0.522l-0.025-0.004c0.086-1.415-4.183-24.722-16.114-26.427-1.929-0.274-3.647,0.228-5.252,1.539-7.791,6.37-9.175,28.685-9.188,28.91-0.031,0.528-0.472,0.939-0.998,0.939z"/>
     </g>
    </g>
   </g>
  </g>
  <text id="stepDown" style="word-spacing:0px;letter-spacing:0px;" font-family="Sans" xml:space="preserve" font-size="20px" line-height="125%" font-style="normal" y="1004.0892" x="269.12372" font-weight="normal" fill="#dcfafc"><tspan id="tspan3147-6" y="1004.0892" x="269.12372" fill="#dcfafc">-10</tspan></text>
  <text id="stepUp" style="word-spacing:0px;letter-spacing:0px;" font-family="Sans" xml:space="preserve" font-size="20px" line-height="125%" font-style="normal" y="915.19574" x="267.98114" font-weight="normal" fill="#dcfafc"><tspan id="tspan3147" y="915.19574" x="267.98114" fill="#dcfafc">+10</tspan></text>
  <text id="numberDisplay" style="writing-mode:lr-tb;letter-spacing:0px;text-anchor:start;word-spacing:0px;text-align:start;" font-family="Sans" xml:space="preserve" font-size="20px" y="959.05737" font-stretch="normal" font-variant="normal" font-style="normal" x="233.12253" font-weight="normal" line-height="125%" fill="#000000"><tspan id="tspan3963">x:0</tspan></text>
 </g>
</svg>
