<?xml version="1.0" encoding="UTF-8" standalone="no"?>
<!-- Created with Inkscape (http://www.inkscape.org/) -->
<svg id="compo" xmlns:rdf="http://www.w3.org/1999/02/22-rdf-syntax-ns#" xmlns="http://www.w3.org/2000/svg" viewBox="0 0 480 300" height="100%" width="100%" version="1.1" preserveAspectRatio="xMidYMax meet" xmlns:cc="http://creativecommons.org/ns#" xmlns:dc="http://purl.org/dc/elements/1.1/">
    <metadata id="metadata7">
        <rdf:RDF>
            <cc:Work rdf:about="">
                <dc:format>image/svg+xml</dc:format>
                <dc:type rdf:resource="http://purl.org/dc/dcmitype/StillImage"/>
                <dc:title/>
            </cc:Work>
        </rdf:RDF>
    </metadata>
    <g id="layerOutputs" transform="translate(0,-652.36218)">
        <rect id="bgOutputs" height="296.05" width="476.05" y="654.34" x="1.9743" fill="#080e1f"/>
        <g id="g3252" transform="translate(139.17662,819.89404)">
            <g id="key" transform="matrix(0.41345981,0,0,0.37990032,177.20059,-112.4827)" fill="#dcfafc">
                <path id="path6" d="m49.174,14.246c-2.529,0-4.586-2.057-4.586-4.585,0-2.529,2.057-4.586,4.586-4.586s4.586,2.058,4.586,4.586-2.058,4.585-4.586,4.585zm0-7.172c-1.426,0-2.586,1.16-2.586,2.586s1.16,2.585,2.586,2.585,2.586-1.16,2.586-2.585c0-1.426-1.161-2.586-2.586-2.586z"/>
                <path id="path8" d="m64.5,86.197c0.55,0,1-0.44,1-1v-4.14c0-0.56-0.45-1-1-1h-11.45v-3.71h1.08c0.55,0,1-0.44,1-1v-5.18c0-0.55-0.45-1-1-1h-1.08v-40.03c6.21-1.71,10.79-7.4,10.79-14.15,0-8.09-6.58-14.67-14.67-14.67-8.08,0-14.67,6.58-14.67,14.67,0,6.77,4.61,12.48,10.85,14.16v40.02h-1.07c-0.56,0-1,0.45-1,1v5.18c0,0.56,0.44,1,1,1h1.07v22.34c0,0.55,0.45,1,1,1h5.7c0.55,0,1-0.45,1-1v-2.63h11.45c0.55,0,1-0.45,1-1v-4.15c0-0.55-0.45-1-1-1h-3.15v-3.71h3.15zm-28-71.21c0-6.99,5.69-12.67,12.67-12.67,6.99,0,12.67,5.68,12.67,12.67s-5.68,12.67-12.67,12.67c-6.98,0-12.67-5.68-12.67-12.67zm14.55,14.54v39.64h-3.7v-39.63c0.6,0.08,1.2,0.12,1.82,0.12,0.64,0,1.27-0.04,1.88-0.13zm0,68.16h-3.7v-21.34h3.7v21.34zm-5.77-23.34v-3.18h7.85v3.18h-7.85zm15.07,17.56h3.15v2.15h-10.45v-12h10.45v2.14h-3.15c-0.55,0-1,0.45-1,1v5.71c0,0.55,0.45,1,1,1z"/>
            </g>
            <g id="rail" transform="matrix(10.102235,0,0,2.7677669,-141.12515,39.471711)">
                <g id="g3238" fill="#dcfafc">
                    <path id="path3240" fill="#dcfafc" d="M46.1,25.1h-44.4c-0.5,0-1-0.399-1-1s0.4-1,1-1h44.5c0.5,0,1,0.4,1,1s-0.5,1-1.1,1z"/>
                </g>
            </g>
            <g id="chariot" transform="translate(4.9243425,0)">
                <g id="g1234" fill="#dcfafc" transform="translate(28.868384,-137.79648)">
                    <g id="g3361" fill="#dcfafc" transform="matrix(0.48299279,0,0,0.46834076,56.610567,182.17033)">
                        <g id="g3363">
                            <path id="path3365" fill="#dcfafc" d="m83.074,53.495h-123c-1.1,0-2-0.9-2-2v-17.5c0-1.1,0.9-2,2-2h123c1.1,0,2,0.9,2,2v17.5c0,1.1-0.9,2-2,2zm-121-4h119v-13.5h-119v13.5z"/>
                        </g>
                        <g id="g3367" transform="translate(-42.426407,-0.50507627)">
                            <path id="path3369" fill="#dcfafc" d="m93.7,127.5c-7.2,0-13-5.8-13-13,0-2,0.5-4,1.4-5.8,2.2-4.4,6.7-7.2,11.7-7.2s9.4,2.8,11.7,7.2c0.9,1.8,1.4,3.8,1.4,5.8-0.2,7.2-6,13-13.2,13zm0-22c-3.4,0-6.5,1.9-8.1,5-0.6,1.3-1,2.6-1,4,0,5,4.1,9,9,9,5,0,9-4,9-9,0-1.4-0.3-2.8-1-4-1.4-3.1-4.5-5-7.9-5z"/>
                        </g>
                        <g id="g3371" transform="translate(-42.426407,-0.50507627)">
                            <path id="path3373" fill="#dcfafc" d="m93.7,120.5c-3.3,0-6-2.7-6-6,0-0.9,0.2-1.8,0.6-2.7,1-2.1,3.1-3.3,5.4-3.3s4.4,1.3,5.4,3.3c0.4,0.8,0.6,1.7,0.6,2.7,0,3.3-2.7,6-6,6zm0-10c-1.5,0-2.9,0.9-3.6,2.2-0.3,0.6-0.4,1.2-0.4,1.8,0,2.2,1.8,4,4,4s4-1.8,4-4c0-0.6-0.1-1.2-0.4-1.8-0.7-1.4-2.1-2.2-3.6-2.2z"/>
                        </g>
                        <g id="g3375" transform="translate(-42.426407,-0.50507627)">
                            <path id="path3377" fill="#dcfafc" d="m34.3,127.5c-7.2,0-13-5.8-13-13,0-2,0.5-4,1.4-5.8,2.2-4.4,6.7-7.2,11.7-7.2s9.4,2.8,11.7,7.2c0.9,1.8,1.4,3.8,1.4,5.8-0.1,7.2-6,13-13.2,13zm0-22c-3.4,0-6.5,1.9-8.1,5-0.6,1.3-1,2.6-1,4,0,5,4.1,9,9,9s9-4,9-9c0-1.4-0.3-2.8-1-4-1.3-3.1-4.4-5-7.9-5z"/>
                        </g>
                        <g id="g3379" transform="translate(-42.426407,-0.50507627)">
                            <path id="path3381" fill="#dcfafc" d="m34.3,120.5c-3.3,0-6-2.7-6-6,0-0.9,0.2-1.8,0.6-2.7,1-2.1,3.1-3.3,5.4-3.3s4.4,1.3,5.4,3.3c0.4,0.8,0.6,1.8,0.6,2.7,0.1,3.3-2.6,6-6,6zm0-10c-1.5,0-2.9,0.9-3.6,2.2-0.3,0.6-0.4,1.2-0.4,1.8,0,2.2,1.8,4,4,4s4-1.8,4-4c0-0.6-0.1-1.2-0.4-1.8-0.7-1.4-2-2.2-3.6-2.2z"/>
                        </g>
                        <g id="g3387" transform="translate(-42.426407,-0.50507627)">
                            <path id="path3389" fill="#dcfafc" d="m111.3,111.6h-7.7c-0.8,0-1.4-0.4-1.8-1.1-1.5-3.1-4.6-5-8.1-5-3.4,0-6.5,1.9-8.1,5-0.3,0.7-1,1.1-1.8,1.1h-39.6c-0.8,0-1.4-0.4-1.8-1.1-1.5-3.1-4.6-5-8.1-5s-6.5,1.9-8.1,5c-0.3,0.7-1,1.1-1.8,1.1h-7.7c-1,0-1.8-0.7-2-1.7l-8.3-57.6c-0.1-0.6,0.1-1.2,0.5-1.6s0.9-0.7,1.5-0.7h111.3c0.6,0,1.1,0.3,1.5,0.7s0.5,1,0.5,1.6l-8.4,57.5c-0.2,1-1,1.8-2,1.8zm-6.6-4h4.8l7.8-53.5h-106.6l7.8,53.5h4.8c2.4-3.8,6.5-6.1,11-6.1s8.7,2.3,11,6.1h37.3c2.4-3.8,6.5-6.1,11-6.1,4.6,0,8.7,2.3,11.1,6.1z"/>
                        </g>
                        <g id="g3391" transform="translate(-42.426407,-0.50507627)">
                            <path id="path3393" fill="#dcfafc" d="m97.7,84.3c-0.6,0-1-0.4-1-1v-22.7c0-0.6,0.4-1,1-1s1,0.4,1,1v22.7c0,0.5-0.5,1-1,1z"/>
                        </g>
                        <g id="g3395" transform="translate(-42.426407,-0.50507627)">
                            <path id="path3397" fill="#dcfafc" d="m75.2,84.3c-0.6,0-1-0.4-1-1v-22.7c0-0.6,0.4-1,1-1s1,0.4,1,1v22.7c0,0.5-0.4,1-1,1z"/>
                        </g>
                        <g id="g3399" transform="translate(-42.426407,-0.50507627)">
                            <path id="path3401" fill="#dcfafc" d="m52.8,84.3c-0.6,0-1-0.4-1-1v-22.7c0-0.6,0.4-1,1-1s1,0.4,1,1v22.7c0,0.5-0.5,1-1,1z"/>
                        </g>
                        <g id="g3403" transform="translate(-42.426407,-0.50507627)">
                            <path id="path3405" fill="#dcfafc" d="m30.3,84.3c-0.6,0-1-0.4-1-1v-22.7c0-0.6,0.4-1,1-1s1,0.4,1,1v22.7c0,0.5-0.4,1-1,1z"/>
                        </g>
                        <g id="g3407" transform="translate(-42.426407,-0.50507627)">
                            <path id="path3409" fill="#dcfafc" d="M113.9,92.8h-99.8c-0.6,0-1-0.4-1-1s0.4-1,1-1h99.7c0.6,0,1,0.4,1,1s-0.4,1-0.9,1z"/>
                        </g>
                    </g>
                </g>
            </g>
            <g id="score">
                <g id="score-icon" transform="matrix(0.25061563,-0.13758201,0.12641482,0.23027379,259.91169,-154.90306)" fill="#dcfafc">
                    <path id="path6-6" d="m49.174,14.246c-2.529,0-4.586-2.057-4.586-4.585,0-2.529,2.057-4.586,4.586-4.586s4.586,2.058,4.586,4.586-2.058,4.585-4.586,4.585zm0-7.172c-1.426,0-2.586,1.16-2.586,2.586s1.16,2.585,2.586,2.585,2.586-1.16,2.586-2.585c0-1.426-1.161-2.586-2.586-2.586z"/>
                    <path id="path8-7" d="m64.5,86.197c0.55,0,1-0.44,1-1v-4.14c0-0.56-0.45-1-1-1h-11.45v-3.71h1.08c0.55,0,1-0.44,1-1v-5.18c0-0.55-0.45-1-1-1h-1.08v-40.03c6.21-1.71,10.79-7.4,10.79-14.15,0-8.09-6.58-14.67-14.67-14.67-8.08,0-14.67,6.58-14.67,14.67,0,6.77,4.61,12.48,10.85,14.16v40.02h-1.07c-0.56,0-1,0.45-1,1v5.18c0,0.56,0.44,1,1,1h1.07v22.34c0,0.55,0.45,1,1,1h5.7c0.55,0,1-0.45,1-1v-2.63h11.45c0.55,0,1-0.45,1-1v-4.15c0-0.55-0.45-1-1-1h-3.15v-3.71h3.15zm-28-71.21c0-6.99,5.69-12.67,12.67-12.67,6.99,0,12.67,5.68,12.67,12.67s-5.68,12.67-12.67,12.67c-6.98,0-12.67-5.68-12.67-12.67zm14.55,14.54v39.64h-3.7v-39.63c0.6,0.08,1.2,0.12,1.82,0.12,0.64,0,1.27-0.04,1.88-0.13zm0,68.16h-3.7v-21.34h3.7v21.34zm-5.77-23.34v-3.18h7.85v3.18h-7.85zm15.07,17.56h3.15v2.15h-10.45v-12h10.45v2.14h-3.15c-0.55,0-1,0.45-1,1v5.71c0,0.55,0.45,1,1,1z"/>
                </g>
                <text id="score-value" style="word-spacing:0px;letter-spacing:0px;" line-height="125%" font-weight="normal" xml:space="preserve" font-size="20px" font-style="normal" y="-143.26068" x="289.53915" font-family="Sans" fill="#dcfafc"><tspan id="score-value-span" y="-143.26068" x="289.53915" fill="#dcfafc">x0</tspan></text>
            </g>
            <g id="life">
                <g id="life-icon" transform="translate(-21.356326,-155.79564)" fill="#dcfafc">
                    <g id="g3272" transform="matrix(0.49845044,0,0,0.49845044,-121.10352,-19.345717)">
                        <path id="path3274" d="m50.001,68.908c-0.127,0-0.252-0.031-0.365-0.094-0.915-0.512-22.395-12.631-22.395-24.619,0-7.593,5.09-13.104,12.104-13.104,3.89,0,8.203,2.599,10.656,5.261,2.451-2.662,6.765-5.261,10.655-5.261,7.014,0,12.104,5.511,12.104,13.104,0,11.988-21.479,24.107-22.394,24.619-0.113,0.063-0.24,0.094-0.365,0.094zm-10.656-36.316c-6.145,0-10.604,4.88-10.604,11.604,0,10.311,18.414,21.441,21.26,23.098,2.845-1.659,21.259-12.794,21.259-23.099,0-6.724-4.459-11.604-10.604-11.604-3.754,0-7.99,2.771-10.069,5.378-0.285,0.356-0.888,0.356-1.173,0-2.08-2.606-6.315-5.377-10.069-5.377z" fill="#dcfafc"/>
                    </g>
                    <g id="g3276" transform="matrix(0.49845044,0,0,0.49845044,-121.10352,-19.345717)">
                        <path id="path3278" d="m32.038,41.814c-0.104,0-0.21-0.021-0.311-0.067-0.377-0.172-0.543-0.617-0.371-0.994,1.449-3.18,4.045-5.337,7.311-6.076,0.405-0.093,0.806,0.162,0.896,0.566,0.092,0.404-0.162,0.806-0.566,0.897-2.797,0.633-5.025,2.492-6.275,5.235-0.127,0.276-0.399,0.439-0.684,0.439z" fill="#dcfafc"/>
                    </g>
                </g>
                <text id="life-value" style="word-spacing:0px;letter-spacing:0px;" line-height="125%" font-weight="normal" xml:space="preserve" font-size="20px" font-style="normal" y="-143.26068" x="-103.16403" font-family="Sans" fill="#000000"><tspan id="life-value-span" y="-143.26068" x="-103.16403" fill="#dcfafc">x3</tspan></text>
            </g>
        </g>
    </g>
</svg>
